<svg xmlns="http://www.w3.org/2000/svg" xmlns:xlink="http://www.w3.org/1999/xlink" viewBox="0 0 380 380"><defs><style>.a{fill:url(#a);}.b{fill:#ffe3aa;}.c,.d{fill:none;stroke:#aa8439;stroke-miterlimit:10;}.c{stroke-width:20px;}.d{stroke-width:15px;}</style><linearGradient id="a" x1="60.23" y1="414.77" x2="319.77" y2="-34.77" gradientUnits="userSpaceOnUse"><stop offset="0" stop-color="#266"/><stop offset="1" stop-color="#407f7f"/></linearGradient></defs><rect class="a" width="380" height="380"/><path class="b" d="M59.68,235.48q-7.2,0-7.2-3.84v-76.8q0-3.84,7.2-3.84h5.16a16,16,0,0,1,4.62.6,6,6,0,0,1,3.3,2.64l27,41.64q1.32,1.8,2.34,3.48t2,3.6l.48-.12q-.12-2-.18-3.78t-.06-4.38V154.84q0-3.84,7.2-3.84H115q7.2,0,7.2,3.84v76.8q0,3.84-7.2,3.84h-4.56a16,16,0,0,1-4.62-.6,6,6,0,0,1-3.3-2.64L74.92,190q-1.2-1.8-2.28-3.48a38.45,38.45,0,0,1-2-3.6l-.48.12a32.5,32.5,0,0,1,.24,3.78v44.82q0,3.84-7.2,3.84Z"/><path class="b" d="M144.52,235.24q-4.8,0-4.8-4.8V156q0-4.8,4.8-4.8h42.12q3.6,0,3.6,6V161q0,6-3.6,6H158.2v17.4h25.2q3.6,0,3.6,6v3.72q0,6-3.6,6H158.2v19.44h28.56q3.6,0,3.6,6v3.72q0,6-3.6,6Z"/><path class="b" d="M226.84,235.48q-7.2,0-7.2-3.84V167H200.56q-3.6,0-3.6-6v-3.72q0-6,3.6-6h56.76q3.6,0,3.6,6V161q0,6-3.6,6H238.24v64.68q0,3.84-7.2,3.84Z"/><path class="b" d="M269.8,235.24q-1,0-2.1-2a19.75,19.75,0,0,1-1.86-4.56,16.29,16.29,0,0,1-.72-4.14,2.67,2.67,0,0,1,.24-1.2l40.2-56.4H272.2q-3.6,0-3.6-6v-3.72q0-6,3.6-6H327q1,0,2,2.1a27.27,27.27,0,0,1,1.74,4.74,17,17,0,0,1,.72,4.2,2.54,2.54,0,0,1-.6,1.68l-39.6,55.56h36.6q3.6,0,3.6,6v3.72q0,6-3.6,6Z"/><path class="c" d="M94,75A149.44,149.44,0,0,1,286,75"/><path class="d" d="M115.86,101a115.39,115.39,0,0,1,148.27.09"/><path class="c" d="M286,305.05A149.44,149.44,0,0,1,94,305"/><path class="d" d="M264.14,279a115.39,115.39,0,0,1-148.27-.09"/></svg>