<svg xmlns="http://www.w3.org/2000/svg" xmlns:xlink="http://www.w3.org/1999/xlink" viewBox="0 0 600 372"><defs><style>.a{fill:url(#a);}.b{fill:#ffe3aa;}.c,.d,.e{fill:none;stroke:#aa8439;stroke-miterlimit:10;}.c{stroke-width:20px;}.d{stroke-width:15px;}.e{stroke-width:10px;}</style><linearGradient id="a" x1="57" y1="-57" x2="543" y2="429" gradientUnits="userSpaceOnUse"><stop offset="0" stop-color="#266"/><stop offset="1" stop-color="#407f7f"/></linearGradient></defs><rect class="a" width="600" height="372"/><path class="b" d="M85.6,216.32q-4.8,0-4.8-2.56v-51.2q0-2.56,4.8-2.56H89a10.51,10.51,0,0,1,3.08.4,4,4,0,0,1,2.2,1.76l18,27.76c.59.8,1.11,1.57,1.56,2.32s.9,1.55,1.32,2.4l.32-.08q-.08-1.37-.12-2.52c0-.77,0-1.75,0-2.92V162.56q0-2.56,4.8-2.56h2.32q4.8,0,4.8,2.56v51.2q0,2.56-4.8,2.56h-3a10.56,10.56,0,0,1-3.08-.4,4,4,0,0,1-2.2-1.76L95.76,186c-.53-.8-1-1.57-1.52-2.32a27.34,27.34,0,0,1-1.36-2.4l-.32.08a21,21,0,0,1,.16,2.52v29.88q0,2.56-4.8,2.56Z"/><path class="b" d="M142.16,216.16q-3.19,0-3.2-3.2v-49.6q0-3.2,3.2-3.2h28.08q2.4,0,2.4,4v2.48q0,4-2.4,4h-19v11.6h16.8q2.4,0,2.4,4v2.48q0,4-2.4,4h-16.8v13h19q2.4,0,2.4,4v2.48q0,4-2.4,4Z"/><path class="b" d="M197,216.32q-4.8,0-4.8-2.56V170.64H179.52q-2.4,0-2.4-4v-2.48q0-4,2.4-4h37.84q2.4,0,2.4,4v2.48q0,4-2.4,4H204.64v43.12q0,2.56-4.8,2.56Z"/><path class="b" d="M225.68,216.16c-.43,0-.89-.44-1.4-1.32a13,13,0,0,1-1.24-3,10.9,10.9,0,0,1-.48-2.76,1.73,1.73,0,0,1,.16-.8l26.8-37.6H227.28q-2.4,0-2.4-4v-2.48q0-4,2.4-4h36.56c.43,0,.87.47,1.32,1.4a18.46,18.46,0,0,1,1.16,3.16,11.31,11.31,0,0,1,.48,2.8,1.67,1.67,0,0,1-.4,1.12l-26.4,37h24.4q2.4,0,2.4,4v2.48q0,4-2.4,4Z"/><path class="b" d="M287.68,216.32a7.89,7.89,0,0,1-3-.48,2.37,2.37,0,0,1-1.44-1.6l-12.56-51c-.05-.27-.09-.49-.12-.68a3.28,3.28,0,0,1,0-.52q0-2.09,5-2.08h2.08a9.28,9.28,0,0,1,3.68.6,2.73,2.73,0,0,1,1.68,1.88l6,25.76c.32,1.39.61,3,.88,4.76s.52,3.6.76,5.44.39,3.53.44,5.08h.32c.21-1.65.48-3.43.8-5.32s.65-3.73,1-5.52.68-3.29,1-4.52l6.56-26.48a1.84,1.84,0,0,1,1.36-1.32,10.29,10.29,0,0,1,3-.36h3a10.29,10.29,0,0,1,3,.36,1.84,1.84,0,0,1,1.36,1.32l6.32,26.56q.56,2.56,1.08,5.44c.35,1.92.65,3.75.92,5.48a40.37,40.37,0,0,1,.48,4.36h.32c.16-1.33.37-2.89.64-4.68s.59-3.63,1-5.52.75-3.64,1.12-5.24l6.16-25.6a2.73,2.73,0,0,1,1.68-1.88,9.28,9.28,0,0,1,3.68-.6h.88q5,0,5,2.08v.52a1.83,1.83,0,0,1-.16.68l-12.88,51a2.39,2.39,0,0,1-1.6,1.6,8.39,8.39,0,0,1-3,.48h-5.84a8.39,8.39,0,0,1-3-.48,2.18,2.18,0,0,1-1.52-1.6l-5.92-25c0-.37-.24-1.52-.56-3.44s-.69-4.13-1.12-6.64h-.32q-.48,3-1,5.84c-.32,1.92-.59,3.33-.8,4.24l-6.08,25a2.41,2.41,0,0,1-1.6,1.68,8.39,8.39,0,0,1-3,.48Z"/><path class="b" d="M351.84,216.16q-3.19,0-3.2-3.2v-49.6q0-3.2,3.2-3.2h28.08q2.4,0,2.4,4v2.48q0,4-2.4,4H361v11.6h16.8q2.4,0,2.4,4v2.48q0,4-2.4,4H361v13h19q2.4,0,2.4,4v2.48q0,4-2.4,4Z"/><path class="b" d="M396.48,216.32q-4.8,0-4.8-2.56v-50.4q0-3.2,3.2-3.2h15.6q10.39,0,15.16,3.92t4.76,11.12a12.22,12.22,0,0,1-2.6,7.88,15.72,15.72,0,0,1-6.76,4.84v.32a7.54,7.54,0,0,1,3.12,2.68,20.21,20.21,0,0,1,2.64,4.68l7,17.6a4.76,4.76,0,0,1,.4,1.52q0,1.6-4.8,1.6h-3.28a10.9,10.9,0,0,1-3-.36,2.34,2.34,0,0,1-1.64-1.32L415.2,199a10.69,10.69,0,0,0-2.68-3.6q-1.49-1.2-5.4-1.2H404v19.52q0,2.56-4.8,2.56ZM404,183.6h7.6a5.51,5.51,0,0,0,3.08-.92,6.72,6.72,0,0,0,2.24-2.48,7.22,7.22,0,0,0,.84-3.48,5.7,5.7,0,0,0-1.8-4.44,7,7,0,0,0-4.92-1.64h-7Z"/><path class="b" d="M445.28,216.32q-4.8,0-4.8-2.56v-51.2q0-2.56,4.8-2.56h2.8q4.8,0,4.8,2.56V184l.32.08,13.92-22.56a2.83,2.83,0,0,1,1.8-1.2,12.25,12.25,0,0,1,3-.32h3.76c3,0,4.48.4,4.48,1.2a3.23,3.23,0,0,1-.64,1.68l-15.44,23.68,17.52,26.88a3.23,3.23,0,0,1,.64,1.68c0,.8-1.5,1.2-4.48,1.2h-4.64a12.77,12.77,0,0,1-3-.32,2.84,2.84,0,0,1-1.84-1.2l-15-24.32-.32.08v23.2q0,2.56-4.8,2.56Z"/><path class="b" d="M490.4,216.16c-2.14,0-3.2-1.07-3.2-3.2v-49.6c0-2.13,1.06-3.2,3.2-3.2h28.08q2.4,0,2.4,4v2.48q0,4-2.4,4h-19v11.6h16.8q2.4,0,2.4,4v2.48q0,4-2.4,4h-16.8v13h19q2.4,0,2.4,4v2.48q0,4-2.4,4Z"/><path class="c" d="M216.78,86.29a129.53,129.53,0,0,1,166.44.08"/><path class="d" d="M235.75,108.89a100,100,0,0,1,128.5.07"/><path class="e" d="M251.81,128a75,75,0,0,1,96.37.08"/><path class="c" d="M383.22,285.71a129.53,129.53,0,0,1-166.44-.08"/><path class="d" d="M364.25,263.11a100,100,0,0,1-128.5-.07"/><path class="e" d="M348.19,244a75,75,0,0,1-96.37-.08"/></svg>