<svg xmlns="http://www.w3.org/2000/svg" viewBox="0 0 40 40"><defs><style>.a{fill:#ffe3aa;}.b{fill:none;stroke:#aa8439;stroke-miterlimit:10;stroke-width:3px;}</style></defs><path class="a" d="M15.16,28c-.84,0-1.26-.22-1.26-.67V13.85c0-.45.42-.68,1.26-.68h.9a2.78,2.78,0,0,1,.81.11,1.06,1.06,0,0,1,.58.46L22.17,21a6.52,6.52,0,0,1,.41.61,6.15,6.15,0,0,1,.35.63l.08,0q0-.36,0-.66c0-.21,0-.46,0-.77v-7c0-.45.42-.68,1.26-.68h.61c.84,0,1.26.23,1.26.68V27.29c0,.45-.42.67-1.26.67H24a2.78,2.78,0,0,1-.81-.11,1,1,0,0,1-.57-.46L17.83,20c-.14-.21-.28-.41-.4-.61a5.45,5.45,0,0,1-.36-.63l-.08,0c0,.24,0,.46,0,.66v7.85c0,.45-.42.67-1.26.67Z"/><path class="b" d="M9.83,7.72a15.75,15.75,0,0,1,20.34,0"/><path class="b" d="M30.17,32.28a15.75,15.75,0,0,1-20.34,0"/></svg>